# xmcd CD database file generated by Grip 2.93
# 
# Track frame offsets:
#       150
#       18325
#       31372
#       44915
#       65675
#       81057
#       100285
#       111102
#       136825
#       160355
#       183205
#       197785
# 
# Disc length: 2855 seconds
# 
# Revision: 3
# Processed by: cddbd v1.4b41PL1 Copyright (c) Steve Scherf et al.
# Submitted via: Grip 2.93
# 
DISCID=a30b250c
DTITLE=New Grange - New Grange
DYEAR=1900
DGENRE=
TTITLE0=Handsome Molly
TTITLE1=Sally Ann
TTITLE2=Under The Hood
TTITLE3=Rock In A Weary Land
TTITLE4=Cabin Waltz
TTITLE5=Goin' To Boston
TTITLE6=Weetabix
TTITLE7=Round Trip
TTITLE8=Stone Coal West Virginia
TTITLE9=Shoot The Moon
TTITLE10=Land's End (live)
TTITLE11=Music Tree
EXTD=
EXTT0=
EXTT1=
EXTT2=
EXTT3=
EXTT4=
EXTT5=
EXTT6=
EXTT7=
EXTT8=
EXTT9=
EXTT10=
EXTT11=
PLAYORDER=
